<svg xmlns="http://www.w3.org/2000/svg" viewBox="0 0 24 24" fill="#f2f2ee">
    <path d="M12 .9a11.1 11.1 0 0 0-3.51 21.63c.56.1.76-.24.76-.54v-2.1c-3.1.68-3.75-1.32-3.75-1.32-.5-1.28-1.23-1.62-1.23-1.62-1-.68.08-.67.08-.67 1.12.08 1.7 1.15 1.7 1.15.98 1.7 2.58 1.2 3.21.91.1-.73.39-1.2.7-1.48-2.47-.28-5.07-1.23-5.07-5.5 0-1.22.44-2.21 1.15-2.99-.12-.28-.5-1.43.1-2.98 0 0 .94-.3 3.08 1.14a10.6 10.6 0 0 1 5.6 0c2.14-1.44 3.08-1.14 3.08-1.14.6 1.55.22 2.7.1 2.98.71.78 1.15 1.77 1.15 2.99 0 4.28-2.61 5.21-5.1 5.49.4.34.76 1 .76 2.03v3c0 .3.2.65.77.54A11.1 11.1 0 0 0 12 .9Z"/>
</svg>
